<?xml version="1.0" encoding="utf-8"?>
<!-- Generator: Adobe Illustrator 24.2.3, SVG Export Plug-In . SVG Version: 6.00 Build 0)  -->
<svg version="1.1" id="Layer_1" xmlns="http://www.w3.org/2000/svg" xmlns:xlink="http://www.w3.org/1999/xlink" x="0px" y="0px"
	 viewBox="0 0 300 300" style="enable-background:new 0 0 300 300;" xml:space="preserve">
<style type="text/css">
	.st0{fill:#C4C4C4;}
</style>
<g>
	<g>
		<path class="st0" d="M150,0C67.2,0,0,67.2,0,150s67.2,150,150,150s150-67.2,150-150S232.8,0,150,0z M221.3,107.9l-14.2,14.2
			l-29-29l-11,11l29,29l-71.1,71.1l-29-29l-11,11l29,29l-7.1,7.1l-0.1-0.1c-0.8,1.3-2.1,2.2-3.6,2.6l-27,6c-0.4,0.1-0.8,0.1-1.2,0.1
			c-1.5,0-2.9-0.6-4-1.6c-1.4-1.4-1.9-3.3-1.5-5.2l6-27c0.3-1.5,1.3-2.8,2.6-3.6l-0.1-0.1L192.3,78.9c1.7-1.7,4.4-1.7,6.1,0
			l22.9,22.9C223,103.5,223,106.3,221.3,107.9z"/>
	</g>
</g>
</svg>
