<?xml version="1.0" encoding="utf-8"?>
<!-- Generator: Adobe Illustrator 24.2.3, SVG Export Plug-In . SVG Version: 6.00 Build 0)  -->
<svg version="1.1" id="Capa_1" xmlns="http://www.w3.org/2000/svg" xmlns:xlink="http://www.w3.org/1999/xlink" x="0px" y="0px"
	 viewBox="0 0 972 180" style="enable-background:new 0 0 972 180;" xml:space="preserve">
<style type="text/css">
	.st0{fill:#C4C4C4;}
	.st1{fill:#341651;}
	.st2{fill:#FFFFFF;}
</style>
<rect x="178.6" y="82.5" class="st0" width="100" height="15"/>
<g>
	<path class="st1" d="M90,180h0.5c49.7,0,90-40.3,90-90s-40.3-90-90-90H90C40.3,0,0,40.3,0,90S40.3,180,90,180z"/>
	<path class="st0" d="M617.5,180h1.1c49.7,0,90-40.3,90-90s-40.3-90-90-90h-1.1c-49.7,0-90,40.3-90,90S567.8,180,617.5,180z"/>
	<path class="st0" d="M354.5,180c49.7,0,90-40.3,90-90s-40.3-90-90-90h-1.1c-49.7,0-90,40.3-90,90s40.3,90,90,90H354.5z"/>
	<path class="st0" d="M881.5,180h0.5c49.7,0,90-40.3,90-90S931.7,0,882,0h-0.5c-49.7,0-90,40.3-90,90S831.8,180,881.5,180z"/>
</g>
<path class="st2" d="M936.8,61.4L923,47.5l-65.3,65.3L832,87.1L818,101l39.6,39.6L936.8,61.4z"/>
<rect x="437" y="82.5" class="st0" width="100" height="15"/>
<rect x="702" y="82.5" class="st0" width="100" height="15"/>
</svg>
